#N canvas 721 70 560 475 12;
#X obj 403 96 hsl 128 15 0 1 0 0 empty empty volume -2 -8 0 10 #fcfcfc #000000 #000000 0 1;
#X obj 404 134 hsl 128 15 0 2 0 0 empty empty speed -2 -8 0 10 #fcfcfc #000000 #000000 0 1;
#X obj 359 26 loadbang;
#X msg 359 49 1;
#X obj 343 163 f;
#X obj 383 163 f;
#X obj 160 76 t b b b;
#X obj 166 42 bng 15 250 50 0 empty empty empty 17 7 0 10 #fcfcfc #000000 #000000;
#X floatatom 172 411 5 0 0 0 - - - 0;
#X msg 29 279 connect localhost 57120;
#X obj 172 338 list prepend send;
#X obj 172 362 list trim;
#X obj 172 387 netsend -u -b;
#X msg 75 310 disconnect;
#X obj 29 254 loadbang;
#X obj 204 185 oscformat /gun;
#X obj 383 213 oscformat /speed;
#X obj 343 267 oscformat /volume;
#X connect 0 0 4 1;
#X connect 1 0 5 1;
#X connect 2 0 3 0;
#X connect 3 0 1 0;
#X connect 3 0 0 0;
#X connect 4 0 17 0;
#X connect 5 0 16 0;
#X connect 6 0 5 0;
#X connect 6 1 4 0;
#X connect 6 2 15 0;
#X connect 7 0 6 0;
#X connect 9 0 12 0;
#X connect 10 0 11 0;
#X connect 11 0 12 0;
#X connect 12 0 8 0;
#X connect 13 0 12 0;
#X connect 14 0 9 0;
#X connect 15 0 10 0;
#X connect 16 0 10 0;
#X connect 17 0 10 0;
