#N canvas 754 262 987 629 12;
#X obj 70 115 osc~, f 5;
#X floatatom 70 87 5 0 0 0 - - - 0;
#X obj 55 196 dac~;
#X msg 72 58 500;
#X msg 105 60 760;
#X msg 38 58 300;
#X obj 69 149 *~;
#X floatatom 143 118 5 0 0 0 - - - 0;
#X obj 144 81 hsl 162 19 0 1 0 0 empty empty empty -2 -10 0 12 #fcfcfc #000000 #000000 0 1;
#X connect 0 0 6 0;
#X connect 1 0 0 0;
#X connect 3 0 1 0;
#X connect 4 0 1 0;
#X connect 5 0 1 0;
#X connect 6 0 2 0;
#X connect 6 0 2 1;
#X connect 7 0 6 1;
#X connect 8 0 7 0;
