#N canvas 160 160 450 300 12;
#X obj 49 18 bng 19 250 50 0 empty empty empty 0 -10 0 12 #fcfcfc #000000 #000000;
#X obj 70 179 noteout;
#X obj 87 57 metro 250;
#X obj 74 98 random 12;
#X obj 73 130 + 60;
#X floatatom 154 130 5 0 0 0 - - - 0;
#X connect 0 0 2 0;
#X connect 2 0 3 0;
#X connect 3 0 4 0;
#X connect 4 0 1 0;
#X connect 5 0 1 1;
