#N canvas 721 70 560 475 12;
#X floatatom 172 411 5 0 0 0 - - - 0;
#X msg 29 279 connect localhost 57120;
#X obj 172 338 list prepend send;
#X obj 172 362 list trim;
#X obj 172 387 netsend -u -b;
#X msg 92 307 disconnect;
#X obj 29 254 loadbang;
#X connect 1 0 4 0;
#X connect 2 0 3 0;
#X connect 3 0 4 0;
#X connect 4 0 0 0;
#X connect 5 0 4 0;
#X connect 6 0 1 0;
